<svg width="10" height="10" viewBox="0 0 20 20" fill="none" xmlns="http://www.w3.org/2000/svg">
<g clip-path="url(#clip0_11302_76069)">
<path d="M20.001 10.0049C20.001 12.7229 20.001 15.4407 20.001 18.1584C20.001 18.5526 19.9337 18.9245 19.7108 19.2496C19.3772 19.7359 18.9198 19.9964 18.3385 19.9971C16.5713 19.9971 14.8041 19.9971 13.0368 19.9971C12.4796 19.9971 11.9223 19.9837 11.3654 20.0005C10.5216 20.0254 9.67558 19.309 9.67774 18.2594C9.68038 12.7606 9.68038 7.26321 9.67774 1.76714C9.67774 0.949752 10.1484 0.289896 10.8861 0.0747748C11.0418 0.0294529 11.2026 0.00608215 11.3643 0.00529698C13.6828 0.000838505 16.0013 0.000838505 18.3198 0.00529698C19.054 0.00715468 19.686 0.47901 19.9042 1.15707C19.972 1.38194 20.0037 1.61677 19.9981 1.85222C19.9966 3.85185 19.9966 5.85148 19.9981 7.85111L20.001 10.0049ZM10.7132 2.30885V17.6906C10.9433 17.7389 18.8386 17.7248 18.9616 17.6791C19.0036 17.4112 18.9867 2.44223 18.9414 2.3081L10.7132 2.30885ZM14.8413 1.36142C15.1949 1.36142 15.5483 1.36142 15.9016 1.36142C15.9554 1.36315 16.0093 1.35904 16.0623 1.34916C16.1076 1.34291 16.1491 1.31979 16.179 1.28414C16.2089 1.24849 16.2252 1.20278 16.2248 1.15558C16.2284 1.05415 16.1615 0.972415 16.0526 0.951237C15.9993 0.94324 15.9454 0.940256 15.8915 0.942321C15.1964 0.942321 14.5013 0.942321 13.8062 0.942321C13.7583 0.940706 13.7102 0.942071 13.6624 0.946408C13.5294 0.96387 13.4528 1.04412 13.4561 1.15819C13.4593 1.27225 13.5405 1.34841 13.6718 1.3603C13.7131 1.36402 13.7555 1.3603 13.7972 1.3603L14.8413 1.36142Z" fill="#6E798B"/>
<path d="M2.66751 8.04715C4.75028 7.90485 6.8165 7.81456 8.90142 7.82162V10.5398C8.83383 10.5465 8.77631 10.5543 8.71878 10.5573C7.95334 10.5944 7.18754 10.6282 6.4221 10.6739C6.17119 10.6916 5.92149 10.7244 5.67427 10.772C5.31474 10.8374 5.15655 11.0514 5.23133 11.4189C5.30503 11.7808 5.41109 12.1371 5.51895 12.4904C5.58798 12.7133 5.78177 12.8069 5.98634 12.8523C6.19672 12.9011 6.41024 12.9342 6.62523 12.9511C7.30618 12.9968 7.98821 13.0302 8.66988 13.067C8.74179 13.0711 8.81118 13.067 8.89927 13.067V14.0984C8.82736 14.1051 8.75905 14.1174 8.69002 14.1174C8.04897 14.1174 7.40793 14.1174 6.76689 14.1174C6.70695 14.1151 6.64692 14.1163 6.58712 14.1211C6.42965 14.1393 6.33761 14.2381 6.33257 14.4027C6.32682 14.5822 6.32754 14.762 6.33257 14.9414C6.33689 15.1469 6.44475 15.2561 6.64968 15.2599C6.87115 15.2643 7.09298 15.2599 7.31445 15.2599C7.77561 15.2599 8.23689 15.2599 8.69829 15.2599C8.76228 15.2599 8.82664 15.2658 8.90358 15.2699V16.2905C8.59366 16.3239 8.28483 16.302 7.97707 16.3057C7.66931 16.3095 7.354 16.3057 7.04229 16.3057H3.28914C3.28339 16.396 3.27584 16.4677 3.27512 16.5394C3.27296 16.7129 3.27692 16.8861 3.27512 17.0596C3.26613 17.4913 3.02884 17.7436 2.61358 17.7473C1.96067 17.7525 1.30776 17.7533 0.654856 17.7473C0.252541 17.7425 0.00554311 17.4906 0.00554311 17.0886C0.00554311 15.2807 0.00374572 13.4727 0.0170484 11.6641C0.0182627 11.0693 0.0852093 10.4765 0.216588 9.89742C0.3604 9.28475 0.614229 8.74564 1.10427 8.34735C1.12251 8.32668 1.13899 8.30443 1.15353 8.28084C1.08593 8.25669 1.02805 8.23477 0.969446 8.21583C0.849363 8.17867 0.723167 8.15229 0.609915 8.09805C0.481203 8.03637 0.347817 7.96727 0.24535 7.86881C-0.110226 7.5281 -0.0656441 6.98677 0.3302 6.69771C0.512127 6.56552 0.729811 6.49608 0.952189 6.49931H1.95888H2.16992C2.30295 6.23143 2.41979 5.97395 2.55534 5.72725C2.8879 5.12276 3.33228 4.63009 3.93809 4.30945C4.18302 4.17821 4.44663 4.08815 4.719 4.04269C5.67666 3.8796 6.64488 3.79154 7.61538 3.77927C7.97491 3.77592 8.33444 3.76255 8.69397 3.75586C8.75833 3.75586 8.82233 3.7644 8.90142 3.77035V4.77351C8.82952 4.78019 8.76516 4.78948 8.70152 4.79097C8.13886 4.8062 7.57439 4.79914 7.01173 4.8389C6.34336 4.88608 5.67715 4.96894 5.01094 5.04325C4.43928 5.10678 4.01036 5.4237 3.66054 5.87624C3.42972 6.17347 3.27512 6.51714 3.12591 6.86156C2.97671 7.20598 2.84296 7.55708 2.70347 7.90596C2.68907 7.95233 2.67707 7.99946 2.66751 8.04715ZM4.39326 12.5357C4.38068 12.4711 4.37421 12.4183 4.36054 12.3674C4.25556 11.9803 4.14051 11.5957 4.04595 11.206C3.97405 10.9058 3.79428 10.7189 3.52391 10.6197C3.37648 10.5688 3.22645 10.5262 3.0745 10.4923C2.56217 10.3678 2.04876 10.2463 1.53535 10.1241C1.3394 10.0772 1.31639 10.0906 1.23586 10.2812C1.12993 10.5311 1.07275 10.8002 1.0676 11.073C1.05394 11.7202 1.3146 12.0973 1.91501 12.2779C2.02438 12.3105 2.13643 12.3326 2.24974 12.344C2.92278 12.4127 3.59618 12.4774 4.26922 12.5424C4.31055 12.543 4.35186 12.5408 4.3929 12.5357H4.39326Z" fill="#6E798B"/>
<path d="M14.8321 14.0732C14.7681 13.9956 14.7091 13.9276 14.6523 13.8566C13.9124 12.9073 13.1674 11.9617 12.4354 11.0065C11.9885 10.4228 11.7793 9.74774 11.7915 9.00317C11.8163 7.4728 12.942 6.14974 14.4118 5.95283C16.0379 5.73511 17.3988 6.76687 17.7806 8.25638C18.0384 9.26251 17.8525 10.2021 17.2273 11.024C16.4723 12.016 15.6982 12.9931 14.9313 13.9747C14.9005 14.0099 14.8673 14.0428 14.8321 14.0732ZM14.8303 10.4095C15.4968 10.4425 16.1357 9.85994 16.1472 9.08305C16.149 8.72949 16.0163 8.38936 15.7777 8.13597C15.5391 7.88257 15.2137 7.73621 14.8716 7.72842C14.1364 7.7195 13.536 8.30988 13.5378 9.05853C13.5381 9.87815 14.1831 10.4284 14.8303 10.4095Z" fill="#6E798B"/>
</g>
<defs>
<clipPath id="clip0_11302_76069">
<rect width="20" height="20" fill="white" transform="translate(0.00195312)"/>
</clipPath>
</defs>
</svg>
