<svg width="10" height="10" viewBox="0 0 18 15" fill="none" xmlns="http://www.w3.org/2000/svg">
<path d="M14.7876 4.79324C12.7048 4.65094 10.6386 4.56066 8.55366 4.56772V7.2859C8.62125 7.29259 8.67877 7.30039 8.7363 7.30337C9.50174 7.34052 10.2675 7.37433 11.033 7.42003C11.2839 7.4377 11.5336 7.47045 11.7808 7.51812C12.1403 7.58351 12.2985 7.79751 12.2237 8.16497C12.15 8.52685 12.044 8.88315 11.9361 9.23649C11.8671 9.45941 11.6733 9.55304 11.4687 9.59837C11.2584 9.64722 11.0448 9.68025 10.8298 9.6972C10.1489 9.7429 9.46686 9.77634 8.78519 9.81312C8.71329 9.81721 8.6439 9.81312 8.55581 9.81312V10.8445C8.62772 10.8512 8.69603 10.8635 8.76506 10.8635C9.4061 10.8635 10.0471 10.8635 10.6882 10.8635C10.7481 10.8612 10.8082 10.8624 10.868 10.8672C11.0254 10.8854 11.1175 10.9842 11.1225 11.1488C11.1283 11.3283 11.1275 11.5081 11.1225 11.6875C11.1182 11.893 11.0103 12.0022 10.8054 12.0059C10.5839 12.0104 10.3621 12.0059 10.1406 12.0059C9.67947 12.0059 9.21819 12.0059 8.75679 12.0059C8.69279 12.0059 8.62844 12.0119 8.5515 12.016V13.0366C8.86141 13.07 9.17025 13.0481 9.47801 13.0518C9.78577 13.0555 10.1011 13.0518 10.4128 13.0518H14.1659C14.1717 13.1421 14.1792 13.2138 14.18 13.2855C14.1821 13.459 14.1782 13.6322 14.18 13.8057C14.1889 14.2374 14.4262 14.4897 14.8415 14.4934C15.4944 14.4986 16.1473 14.4994 16.8002 14.4934C17.2025 14.4886 17.4495 14.2367 17.4495 13.8347C17.4495 12.0268 17.4513 10.2188 17.438 8.41018C17.4368 7.81536 17.3699 7.22263 17.2385 6.64351C17.0947 6.03084 16.8408 5.49174 16.3508 5.09344C16.3326 5.07278 16.3161 5.05053 16.3016 5.02694C16.3691 5.00279 16.427 4.98087 16.4856 4.96192C16.6057 4.92477 16.7319 4.89839 16.8452 4.84414C16.9739 4.78247 17.1073 4.71336 17.2097 4.6149C17.5653 4.2742 17.5207 3.73287 17.1249 3.44381C16.943 3.31161 16.7253 3.24218 16.5029 3.2454H15.4962H15.2852C15.1521 2.97752 15.0353 2.72005 14.8997 2.47334C14.5672 1.86885 14.1228 1.37619 13.517 1.05555C13.2721 0.9243 13.0084 0.834248 12.7361 0.788782C11.7784 0.625689 10.8102 0.53763 9.8397 0.525359C9.48017 0.522015 9.12064 0.508641 8.76111 0.501953C8.69675 0.501953 8.63275 0.510498 8.55366 0.516443V1.5196C8.62556 1.52629 8.68992 1.53558 8.75355 1.53706C9.31622 1.5523 9.88068 1.54524 10.4434 1.58499C11.1117 1.63218 11.7779 1.71503 12.4441 1.78934C13.0158 1.85287 13.4447 2.1698 13.7945 2.62233C14.0254 2.91956 14.18 3.26324 14.3292 3.60766C14.4784 3.95207 14.6121 4.30318 14.7516 4.65205C14.766 4.69843 14.778 4.74555 14.7876 4.79324ZM13.0618 9.28181C13.0744 9.21717 13.0809 9.16441 13.0945 9.11351C13.1995 8.72636 13.3146 8.34182 13.4091 7.95207C13.481 7.65187 13.6608 7.46498 13.9312 7.36578C14.0786 7.31485 14.2286 7.27231 14.3806 7.23835C14.8929 7.11388 15.4063 6.99239 15.9197 6.87015C16.1157 6.82334 16.1387 6.83671 16.2192 7.02731C16.3251 7.27722 16.3823 7.54628 16.3875 7.81906C16.4011 8.46629 16.1405 8.8434 15.5401 9.02397C15.4307 9.05659 15.3186 9.07873 15.2053 9.0901C14.5323 9.15884 13.8589 9.22348 13.1859 9.2885C13.1445 9.28909 13.1032 9.28685 13.0622 9.28181H13.0618Z" fill="#6E798B"/>
<path d="M3.21634 4.79324C5.2991 4.65094 7.36533 4.56066 9.45025 4.56772V7.2859C9.38266 7.29259 9.32513 7.30039 9.26761 7.30337C8.50217 7.34052 7.73637 7.37433 6.97092 7.42003C6.72002 7.4377 6.47032 7.47045 6.2231 7.51812C5.86357 7.58351 5.70537 7.79751 5.78016 8.16497C5.85386 8.52685 5.95992 8.88315 6.06778 9.23649C6.13681 9.45941 6.3306 9.55304 6.53517 9.59837C6.74554 9.64722 6.95907 9.68025 7.17406 9.6972C7.85501 9.7429 8.53704 9.77634 9.21871 9.81312C9.29062 9.81721 9.36001 9.81312 9.44809 9.81312V10.8445C9.37619 10.8512 9.30788 10.8635 9.23885 10.8635C8.5978 10.8635 7.95676 10.8635 7.31571 10.8635C7.25577 10.8612 7.19575 10.8624 7.13595 10.8672C6.97847 10.8854 6.88643 10.9842 6.8814 11.1488C6.87565 11.3283 6.87637 11.5081 6.8814 11.6875C6.88572 11.893 6.99357 12.0022 7.19851 12.0059C7.41998 12.0104 7.64181 12.0059 7.86328 12.0059C8.32444 12.0059 8.78572 12.0059 9.24712 12.0059C9.31111 12.0059 9.37547 12.0119 9.45241 12.016V13.0366C9.14249 13.07 8.83366 13.0481 8.5259 13.0518C8.21814 13.0555 7.90283 13.0518 7.59112 13.0518H3.83797C3.83222 13.1421 3.82467 13.2138 3.82395 13.2855C3.82179 13.459 3.82575 13.6322 3.82395 13.8057C3.81496 14.2374 3.57767 14.4897 3.16241 14.4934C2.5095 14.4986 1.85659 14.4994 1.20368 14.4934C0.801369 14.4886 0.554371 14.2367 0.554371 13.8347C0.554371 12.0268 0.552574 10.2188 0.565876 8.41018C0.567091 7.81536 0.634037 7.22263 0.765416 6.64351C0.909228 6.03084 1.16306 5.49174 1.6531 5.09344C1.67133 5.07278 1.68781 5.05053 1.70235 5.02694C1.63476 5.00279 1.57688 4.98087 1.51827 4.96192C1.39819 4.92477 1.272 4.89839 1.15874 4.84414C1.03003 4.78247 0.896645 4.71336 0.794178 4.6149C0.438602 4.2742 0.483184 3.73287 0.879028 3.44381C1.06096 3.31161 1.27864 3.24218 1.50102 3.2454H2.5077H2.71875C2.85178 2.97752 2.96862 2.72005 3.10417 2.47334C3.43673 1.86885 3.88111 1.37619 4.48692 1.05555C4.73185 0.9243 4.99546 0.834248 5.26782 0.788782C6.22548 0.625689 7.1937 0.53763 8.16421 0.525359C8.52374 0.522015 8.88327 0.508641 9.2428 0.501953C9.30716 0.501953 9.37115 0.510498 9.45025 0.516443V1.5196C9.37834 1.52629 9.31399 1.53558 9.25035 1.53706C8.68769 1.5523 8.12322 1.54524 7.56056 1.58499C6.89219 1.63218 6.22598 1.71503 5.55976 1.78934C4.98811 1.85287 4.55919 2.1698 4.20936 2.62233C3.97855 2.91956 3.82395 3.26324 3.67474 3.60766C3.52554 3.95207 3.39179 4.30318 3.25229 4.65205C3.2379 4.69843 3.2259 4.74555 3.21634 4.79324ZM4.94209 9.28181C4.92951 9.21717 4.92303 9.16441 4.90937 9.11351C4.80439 8.72636 4.68934 8.34182 4.59478 7.95207C4.52288 7.65187 4.34311 7.46498 4.07274 7.36578C3.9253 7.31485 3.77527 7.27231 3.62333 7.23835C3.111 7.11388 2.59759 6.99239 2.08418 6.87015C1.88823 6.82334 1.86522 6.83671 1.78469 7.02731C1.67876 7.27722 1.62158 7.54628 1.61643 7.81906C1.60276 8.46629 1.86342 8.8434 2.46384 9.02397C2.57321 9.05659 2.68526 9.07873 2.79856 9.0901C3.47161 9.15884 4.14501 9.22348 4.81805 9.2885C4.85937 9.28909 4.90069 9.28685 4.94173 9.28181H4.94209Z" fill="#6E798B"/>
</svg>
