<svg width="24" height="25" viewBox="0 0 24 25" fill="none" xmlns="http://www.w3.org/2000/svg">
<g clip-path="url(#clip0_3656_15232)">
<path d="M23.9981 12.785C23.9981 16.0465 23.9981 19.3079 23.9981 22.5692C23.9981 23.0422 23.9174 23.4885 23.6499 23.8786C23.2496 24.4622 22.7008 24.7748 22.0031 24.7757C19.8825 24.7757 17.7618 24.7757 15.6412 24.7757C14.9724 24.7757 14.3037 24.7596 13.6354 24.7797C12.6228 24.8095 11.6076 23.9499 11.6102 22.6904C11.6134 16.0919 11.6134 9.49495 11.6102 2.89967C11.6102 1.91881 12.175 1.12698 13.0603 0.868834C13.2471 0.814448 13.4401 0.786403 13.6341 0.785461C16.4163 0.780111 19.1985 0.780111 21.9807 0.785461C22.8617 0.78769 23.6202 1.35392 23.882 2.16759C23.9634 2.43744 24.0014 2.71922 23.9946 3.00177C23.9929 5.40133 23.9929 7.80088 23.9946 10.2004L23.9981 12.785ZM12.8528 3.54972V22.0078C13.1289 22.0658 22.6033 22.0488 22.7508 21.994C22.8013 21.6726 22.781 3.70978 22.7267 3.54883L12.8528 3.54972ZM17.8065 2.41281C18.2308 2.41281 18.6549 2.41281 19.0788 2.41281C19.1435 2.41489 19.2081 2.40996 19.2717 2.39809C19.326 2.3906 19.3758 2.36285 19.4117 2.32007C19.4476 2.2773 19.4672 2.22244 19.4667 2.16581C19.471 2.04409 19.3908 1.946 19.2601 1.92059C19.1961 1.91099 19.1314 1.90741 19.0668 1.90989C18.2327 1.90989 17.3985 1.90989 16.5644 1.90989C16.5069 1.90795 16.4492 1.90959 16.3919 1.91479C16.2322 1.93575 16.1403 2.03205 16.1442 2.16893C16.1481 2.3058 16.2456 2.3972 16.4031 2.41147C16.4527 2.41593 16.5036 2.41147 16.5536 2.41147L17.8065 2.41281Z" fill="white"/>
<path d="M3.19865 10.438C5.69796 10.2673 8.17743 10.1589 10.6793 10.1674V13.4292C10.5982 13.4372 10.5292 13.4466 10.4602 13.4502C9.54164 13.4948 8.62268 13.5353 7.70415 13.5902C7.40306 13.6114 7.10342 13.6507 6.80676 13.7079C6.37532 13.7863 6.18549 14.0431 6.27523 14.4841C6.36367 14.9183 6.49094 15.3459 6.62038 15.7699C6.70321 16.0374 6.93576 16.1498 7.18124 16.2042C7.43369 16.2628 7.68992 16.3024 7.94791 16.3228C8.76505 16.3776 9.58349 16.4177 10.4015 16.4619C10.4878 16.4668 10.571 16.4619 10.6768 16.4619V17.6995C10.5905 17.7076 10.5085 17.7223 10.4257 17.7223C9.6564 17.7223 8.88715 17.7223 8.1179 17.7223C8.04597 17.7195 7.97394 17.721 7.90218 17.7267C7.71321 17.7486 7.60276 17.8672 7.59672 18.0647C7.58982 18.28 7.59068 18.4958 7.59672 18.7112C7.6019 18.9577 7.73133 19.0888 7.97725 19.0933C8.24301 19.0986 8.50921 19.0933 8.77497 19.0933C9.32836 19.0933 9.8819 19.0933 10.4356 19.0933C10.5124 19.0933 10.5896 19.1004 10.6819 19.1053V20.33C10.31 20.3702 9.93942 20.3439 9.57011 20.3483C9.2008 20.3528 8.82243 20.3483 8.44838 20.3483H3.9446C3.9377 20.4567 3.92864 20.5427 3.92778 20.6288C3.92519 20.837 3.92993 21.0447 3.92778 21.253C3.91699 21.771 3.63224 22.0738 3.13393 22.0782C2.35044 22.0845 1.56695 22.0854 0.783459 22.0782C0.300681 22.0724 0.00428357 21.7701 0.00428357 21.2877C0.00428357 19.1182 0.0021267 16.9487 0.0180899 14.7783C0.0195471 14.0646 0.099883 13.3533 0.257537 12.6583C0.430112 11.9231 0.734707 11.2762 1.32276 10.7983C1.34464 10.7735 1.36441 10.7468 1.38186 10.7185C1.30075 10.6895 1.23129 10.6632 1.16097 10.6404C1.01687 10.5958 0.865433 10.5642 0.72953 10.4991C0.575075 10.4251 0.415012 10.3422 0.292052 10.224C-0.134639 9.81517 -0.0811411 9.16557 0.393871 8.8187C0.612185 8.66007 0.873405 8.57674 1.14026 8.58062H2.34828H2.60154C2.76117 8.25916 2.90139 7.95019 3.06404 7.65414C3.46312 6.92875 3.99637 6.33756 4.72335 5.95279C5.01726 5.79529 5.33359 5.68723 5.66043 5.63267C6.80962 5.43696 7.97148 5.33129 9.13609 5.31656C9.56752 5.31255 9.99896 5.2965 10.4304 5.28848C10.5076 5.28848 10.5844 5.29873 10.6793 5.30586V6.50965C10.5931 6.51768 10.5158 6.52882 10.4395 6.53061C9.76426 6.54889 9.0869 6.54042 8.4117 6.58812C7.60966 6.64474 6.81021 6.74417 6.01076 6.83334C5.32477 6.90958 4.81006 7.28989 4.39028 7.83293C4.11329 8.18961 3.92778 8.60202 3.74873 9.01532C3.56968 9.42862 3.40919 9.84995 3.24179 10.2686C3.22451 10.3242 3.21011 10.3808 3.19865 10.438ZM5.26955 15.8243C5.25445 15.7467 5.24668 15.6834 5.23028 15.6223C5.1043 15.1578 4.96625 14.6963 4.85278 14.2286C4.76649 13.8684 4.55077 13.6441 4.22633 13.5251C4.0494 13.464 3.86937 13.4129 3.68703 13.3721C3.07223 13.2228 2.45614 13.077 1.84005 12.9303C1.60492 12.8741 1.5773 12.8902 1.48066 13.1189C1.35355 13.4188 1.28493 13.7417 1.27875 14.069C1.26236 14.8457 1.57515 15.2982 2.29565 15.5149C2.42689 15.554 2.56135 15.5806 2.69732 15.5943C3.50497 15.6767 4.31305 15.7543 5.1207 15.8323C5.17029 15.833 5.2203 15.8304 5.26955 15.8243Z" fill="white"/>
<path d="M17.7958 17.6684C17.719 17.5752 17.6482 17.4936 17.58 17.4084C16.6921 16.2693 15.7982 15.1346 14.9198 13.9883C14.3835 13.2879 14.1324 12.4778 14.1471 11.5843C14.1769 9.74786 15.5277 8.1602 17.2914 7.9239C19.2428 7.66263 20.8758 8.90075 21.334 10.6882C21.6433 11.8955 21.4203 13.0231 20.67 14.0093C19.764 15.1997 18.8351 16.3723 17.9148 17.5502C17.8778 17.5924 17.838 17.6318 17.7958 17.6684ZM17.7936 13.2718C18.5935 13.3115 19.3601 12.6124 19.374 11.6802C19.3761 11.2559 19.2168 10.8477 18.9305 10.5437C18.6442 10.2396 18.2537 10.064 17.8432 10.0546C16.9609 10.0439 16.2404 10.7524 16.2426 11.6507C16.243 12.6343 17.017 13.2946 17.7936 13.2718Z" fill="white"/>
</g>
<defs>
<clipPath id="clip0_3656_15232">
<rect width="24" height="24" fill="white" transform="translate(0 0.780273)"/>
</clipPath>
</defs>
</svg>
