<svg width="10" height="10" viewBox="0 0 20 20" fill="none" xmlns="http://www.w3.org/2000/svg">
<path d="M10.8445 2.43164L15.7612 4.61497C17.1779 5.23997 17.1779 6.27331 15.7612 6.89831L10.8445 9.08164C10.2862 9.33164 9.36953 9.33164 8.8112 9.08164L3.89453 6.89831C2.47786 6.27331 2.47786 5.23997 3.89453 4.61497L8.8112 2.43164C9.36953 2.18164 10.2862 2.18164 10.8445 2.43164Z" stroke="#6E798B" stroke-width="1.5" stroke-linecap="round" stroke-linejoin="round"/>
<path d="M2.50195 9.16406C2.50195 9.86406 3.02695 10.6724 3.66862 10.9557L9.32695 13.4724C9.76029 13.6641 10.252 13.6641 10.677 13.4724L16.3353 10.9557C16.977 10.6724 17.502 9.86406 17.502 9.16406" stroke="#6E798B" stroke-width="1.5" stroke-linecap="round" stroke-linejoin="round"/>
<path d="M2.50195 13.332C2.50195 14.107 2.96029 14.807 3.66862 15.1237L9.32695 17.6404C9.76029 17.832 10.252 17.832 10.677 17.6404L16.3353 15.1237C17.0436 14.807 17.502 14.107 17.502 13.332" stroke="#6E798B" stroke-width="1.5" stroke-linecap="round" stroke-linejoin="round"/>
</svg>
