<svg width="24" height="25" viewBox="0 0 24 25" fill="none" xmlns="http://www.w3.org/2000/svg">
<path d="M13.0106 3.69824L18.9106 6.31824C20.6106 7.06824 20.6106 8.30824 18.9106 9.05824L13.0106 11.6782C12.3406 11.9782 11.2406 11.9782 10.5706 11.6782L4.67063 9.05824C2.97063 8.30824 2.97063 7.06824 4.67063 6.31824L10.5706 3.69824C11.2406 3.39824 12.3406 3.39824 13.0106 3.69824Z" stroke="white" stroke-width="1.8" stroke-linecap="round" stroke-linejoin="round"/>
<path d="M3.00061 11.7772C3.00061 12.6172 3.63061 13.5872 4.40061 13.9272L11.1906 16.9472C11.7106 17.1772 12.3006 17.1772 12.8106 16.9472L19.6006 13.9272C20.3706 13.5872 21.0006 12.6172 21.0006 11.7772" stroke="white" stroke-width="1.8" stroke-linecap="round" stroke-linejoin="round"/>
<path d="M3.00061 16.7787C3.00061 17.7087 3.55061 18.5487 4.40061 18.9287L11.1906 21.9487C11.7106 22.1787 12.3006 22.1787 12.8106 21.9487L19.6006 18.9287C20.4506 18.5487 21.0006 17.7087 21.0006 16.7787" stroke="white" stroke-width="1.8" stroke-linecap="round" stroke-linejoin="round"/>
</svg>
