<svg width="30" height="30" viewBox="0 0 30 30" fill="none" xmlns="http://www.w3.org/2000/svg">
<path d="M14.9957 -0.0078125C6.71387 -0.0078125 0 6.70645 0 14.9879C0 23.2695 6.71387 29.9844 14.9957 29.9844C23.2777 29.9844 29.9918 23.2697 29.9918 14.9879C29.9918 6.70625 23.2777 -0.0078125 14.9957 -0.0078125ZM10.8975 20.7559H20.2123C21.4232 20.7559 22.4082 21.7412 22.4082 22.9521C22.4082 24.1629 21.4232 25.1482 20.2123 25.1482C19.0012 25.1482 18.0158 24.1629 18.0158 22.9521C18.0158 22.7293 18.0498 22.5145 18.1115 22.3117H11.801C11.8629 22.5145 11.8969 22.7291 11.8969 22.9521C11.8969 24.1629 10.9117 25.1482 9.70059 25.1482C8.48945 25.1482 7.50449 24.1629 7.50449 22.9521C7.50449 21.8703 8.29141 20.9709 9.32266 20.7908L8.93652 18.6645L8.93242 18.6441L6.88457 8.51016L5.00312 8.52246L4.99277 6.9668L8.15586 6.9457L8.92129 10.733L23.1014 12.4332L21.3 19.2971H10.6326L10.8975 20.7559Z" fill="#FF9B70"/>
</svg>
