<svg width="24" height="25" viewBox="0 0 24 25" fill="none" xmlns="http://www.w3.org/2000/svg">
<g clip-path="url(#clip0_3656_15199)">
<path fill-rule="evenodd" clip-rule="evenodd" d="M8.16 4.78027C7.63121 4.78044 7.11186 4.92038 6.65456 5.18591C6.19727 5.45143 5.81828 5.83311 5.556 6.29227L3.563 9.78027H2.4C2.29391 9.78027 2.19217 9.82242 2.11716 9.89743C2.04214 9.97245 2 10.0742 2 10.1803V10.6553C1.9998 10.8338 2.05936 11.0073 2.16917 11.1481C2.27899 11.289 2.43276 11.389 2.606 11.4323L2.63 11.4373C2.21244 12.3039 2.05376 13.2727 2.173 14.2273L2.898 20.0283C2.95846 20.5121 3.19356 20.9571 3.5591 21.2798C3.92464 21.6024 4.39544 21.7804 4.883 21.7803H5C5.53043 21.7803 6.03914 21.5696 6.41421 21.1945C6.78929 20.8194 7 20.3107 7 19.7803H17C17 20.3107 17.2107 20.8194 17.5858 21.1945C17.9609 21.5696 18.4696 21.7803 19 21.7803H19.117C19.6046 21.7804 20.0754 21.6024 20.4409 21.2798C20.8064 20.9571 21.0415 20.5121 21.102 20.0283L21.827 14.2283C21.9462 13.2737 21.7876 12.3049 21.37 11.4383L21.394 11.4323C21.5672 11.389 21.721 11.289 21.8308 11.1481C21.9406 11.0073 22.0002 10.8338 22 10.6553V10.1803C22 10.0742 21.9579 9.97245 21.8828 9.89743C21.8078 9.82242 21.7061 9.78027 21.6 9.78027H20.437L18.444 6.29227C18.1817 5.83311 17.8027 5.45143 17.3454 5.18591C16.8881 4.92038 16.3688 4.78044 15.84 4.78027H8.161H8.16ZM18.422 10.2843L16.708 7.28427C16.6205 7.13107 16.494 7.00375 16.3414 6.91523C16.1888 6.82672 16.0154 6.78015 15.839 6.78027H8.161C7.98457 6.78015 7.81124 6.82672 7.65862 6.91523C7.506 7.00375 7.37951 7.13107 7.292 7.28427L5.578 10.2843C5.49114 10.4363 5.44574 10.6085 5.44633 10.7837C5.44692 10.9588 5.49349 11.1307 5.58137 11.2821C5.66926 11.4336 5.79538 11.5593 5.94711 11.6468C6.09885 11.7342 6.27088 11.7802 6.446 11.7803H17.554C17.7291 11.7802 17.9012 11.7342 18.0529 11.6468C18.2046 11.5593 18.3307 11.4336 18.4186 11.2821C18.5065 11.1307 18.5531 10.9588 18.5537 10.7837C18.5543 10.6085 18.5089 10.4363 18.422 10.2843ZM5 15.8193V15.1193C4.99995 15.0326 5.02241 14.9475 5.06518 14.8722C5.10794 14.7968 5.16955 14.7339 5.24395 14.6895C5.31836 14.6452 5.40301 14.6209 5.48962 14.6191C5.57623 14.6173 5.66182 14.638 5.738 14.6793L8.48 16.1593C8.853 16.3613 8.698 16.9283 8.274 16.9113L5.96 16.8183C5.70212 16.808 5.45822 16.6983 5.27931 16.5123C5.10039 16.3263 5.00031 16.0784 5 15.8203V15.8193ZM19 15.1193V15.8193C19.0002 16.0777 18.9004 16.3262 18.7214 16.5126C18.5424 16.699 18.2982 16.8089 18.04 16.8193L15.726 16.9113C15.302 16.9283 15.146 16.3613 15.52 16.1593L18.262 14.6793C18.3382 14.638 18.4238 14.6173 18.5104 14.6191C18.597 14.6209 18.6816 14.6452 18.756 14.6895C18.8305 14.7339 18.8921 14.7968 18.9348 14.8722C18.9776 14.9475 19 15.0326 19 15.1193Z" fill="white"/>
</g>
<defs>
<clipPath id="clip0_3656_15199">
<rect width="24" height="24" fill="white" transform="translate(0 0.780273)"/>
</clipPath>
</defs>
</svg>
