<svg width="33" height="40" viewBox="0 0 33 40" fill="none" xmlns="http://www.w3.org/2000/svg">
<path d="M16.0497 0.116821C8.42041 0.116821 2.01677 5.20409 0.400227 12.0017C0.137578 13.0929 0 14.2248 0 15.3817C0 24.5401 6.85389 33.3545 12.604 39.1452L13.3388 39.8832H18.7575L18.8889 39.7519L19.4955 39.1452L19.5799 39.0514L21.2527 37.288C21.5435 36.9815 21.8405 36.6626 22.1313 36.3374C22.3565 36.0935 22.5785 35.8434 22.7942 35.5901C26.6589 31.1094 30.3579 25.5438 31.6367 19.6435C31.6836 19.409 31.7305 19.187 31.768 18.9525C31.7868 18.8587 31.8056 18.7649 31.815 18.6617C31.89 18.1865 31.9463 17.6987 31.9838 17.214C32.0588 16.5418 32.0964 15.8508 32.0964 15.1597C31.9744 6.84877 24.8329 0.116821 16.056 0.116821H16.0497ZM20.8493 36.9159L18.5043 39.3891L16.0873 36.8314C11.2595 31.7348 5.50938 23.9648 5.50938 15.9352C5.50938 8.70921 11.3908 2.82462 18.6293 2.82462C21.1777 2.82462 23.5603 3.56253 25.5677 4.82262C29.1259 7.22085 31.4773 11.2919 31.4773 15.8977C31.4773 23.9741 25.7084 31.7879 20.8525 36.9159H20.8493Z" fill="#337CFD"/>
<path d="M13.6465 14.1874C14.1687 12.0175 16.1448 10.4103 18.4993 10.4103C21.2508 10.4103 23.4896 12.6178 23.4896 15.3318H27.5294C27.5294 10.4103 23.4802 6.42053 18.5024 6.42053C13.5246 6.42053 9.46289 10.4103 9.46289 15.3318C9.46289 19.875 13.7059 20.5911 16.989 20.7756C17.2423 20.7943 17.4831 20.8037 17.7145 20.8037C17.9177 20.8131 18.1209 20.8319 18.3148 20.8319C18.74 20.8506 19.256 20.8694 19.7781 20.9006C21.1914 20.9976 21.5604 21.4728 21.5604 21.9387C21.5604 22.095 21.5229 22.2389 21.4728 22.3827C20.6786 23.9617 19.6906 25.6002 18.4993 27.273C17.2986 25.5877 16.2918 23.9524 15.507 22.3733L10.8199 22.4328C13.9092 29.59 18.5024 33.8361 18.5024 33.8361C18.5024 33.8361 23.4427 28.6832 25.7565 23.4427L25.8253 23.2676C26.3881 21.6292 26.0786 20.0908 25.3125 18.9964C23.9743 17.0485 21.1758 16.9515 18.4743 16.8546C16.8483 16.7952 15.7321 16.6982 14.9879 16.5544C14.9504 16.545 14.9097 16.5357 14.8722 16.5263C14.1249 16.3137 13.5746 15.5976 13.5746 14.744C13.5746 14.6752 13.584 14.6002 13.584 14.5314C13.6121 14.4157 13.6215 14.3 13.6528 14.1937L13.6465 14.1874Z" fill="#337CFD"/>
</svg>
